<svg version="1.1" id="Layer_1" xmlns="http://www.w3.org/2000/svg" x="0px" y="0px"
     viewBox="0 0 35.25 50" enable-background="new 0 0 35.25 50" xml:space="preserve">
<g>
	<g>
		<g>
			<path fill="#002D5C" d="M1.17,24.1c0.04,0,0.07,0,0.11-0.01c0.36-0.06,0.61-0.4,0.55-0.77c-0.04-0.24-0.07-0.48-0.1-0.73h12.33
				c0.37,0,0.67-0.3,0.67-0.67c0-0.37-0.3-0.67-0.67-0.67H1.63c-0.01-0.19-0.01-0.37-0.01-0.56c0-3.43,1.07-6.7,3.09-9.46
				c0.22-0.3,0.15-0.72-0.14-0.93c-0.3-0.22-0.71-0.15-0.93,0.14c-2.19,2.99-3.35,6.53-3.35,10.25c0,0.95,0.08,1.91,0.23,2.84
				C0.56,23.87,0.85,24.1,1.17,24.1z"/>
		</g>
	</g>
    <g>
		<g>
			<path fill="#002D5C" d="M33.64,20.7c0,0.19-0.01,0.37-0.01,0.56H20.9c-0.37,0-0.67,0.3-0.67,0.67c0,0.37,0.3,0.67,0.67,0.67
				h12.62c-0.94,7.94-7.71,14.12-15.89,14.12c-3.55,0-6.91-1.14-9.73-3.3c0,0-0.36-0.26-0.83-0.71c-0.27-0.25-0.69-0.24-0.94,0.02
				C5.87,33,5.88,33.42,6.14,33.68c0.54,0.51,0.95,0.81,0.95,0.81c3.05,2.33,6.69,3.56,10.53,3.56c9.56,0,17.35-7.78,17.35-17.35
				c0-4.39-1.64-8.57-4.62-11.79c-0.25-0.27-0.67-0.29-0.94-0.04c-0.27,0.25-0.29,0.67-0.04,0.94
				C32.12,12.79,33.64,16.65,33.64,20.7z"/>
		</g>
	</g>
    <g>
		<g>
			<path fill="#007852" d="M9.36,11.43c1.7,1.04,3.66,0.79,4.38,0.66l3.1,1.72v3.93l-1.12-0.62c-0.38-1.91-1.79-2.99-3.95-2.99
				c-0.69,0-1.2,0.12-1.22,0.12c-0.35,0.08-0.57,0.42-0.51,0.77c0.54,2.98,2.54,3.42,3.68,3.42c0.54,0,1.02-0.1,1.31-0.18l1.81,1
				v1.44l0,3.5c-0.05,0.71-0.36,3.37-2.17,4.5c-0.24,0.15-0.5,0.27-0.77,0.35c-0.01,0-0.02-0.01-0.02-0.01
				c-2.12-0.5-2.75-2.91-2.76-2.95c-0.09-0.36-0.45-0.58-0.81-0.49c-0.36,0.09-0.58,0.45-0.49,0.81c0.02,0.09,0.38,1.51,1.5,2.65
				c-0.66-0.15-1.37-0.39-2.13-0.74c-0.09-0.05-0.39-0.21-0.86-0.42c-0.3-0.15-2.43-1.32-2.43-3.15c0-0.37-0.3-0.67-0.67-0.67
				s-0.67,0.3-0.67,0.67c0,0.76,0.23,1.43,0.56,1.99c-1.14-0.32-1.92-0.49-3.36-0.63c-0.37-0.04-0.69,0.23-0.73,0.6
				C1,27.07,1.26,27.4,1.63,27.43c2.36,0.24,3.85,0.76,5.21,1.29c-1.46,0.15-2.53,0.61-3.18,1.38c-0.24,0.28-0.2,0.7,0.08,0.94
				c0.13,0.11,0.28,0.16,0.43,0.16c0.19,0,0.38-0.08,0.51-0.24c1.17-1.39,4.79-0.96,6.09-0.67c0.69,0.17,1.33,0.26,1.94,0.26
				c1.01,0,1.91-0.24,2.69-0.73c0.61-0.38,1.09-0.89,1.46-1.43l0,0.55c-0.05,1.95-0.52,2.79-0.92,3.14
				c-0.29,0.26-0.66,0.36-1.11,0.31c-0.37-0.04-0.7,0.21-0.75,0.58c-0.05,0.37,0.21,0.7,0.58,0.75c0.13,0.02,0.27,0.03,0.4,0.03
				c0.67,0,1.27-0.22,1.76-0.66c0.04-0.04,0.09-0.08,0.13-0.12c0.1,0.43,0.32,0.97,0.78,1.4c0.5,0.47,1.15,0.7,1.94,0.7
				c0.11,0,0.22,0,0.34-0.01c0.37-0.03,0.64-0.35,0.61-0.72s-0.35-0.64-0.72-0.61c-0.56,0.04-0.98-0.07-1.26-0.32
				c-0.46-0.42-0.46-1.15-0.46-1.17l0-3.23c0.22,0.34,0.47,0.68,0.77,0.99c1.36,1.44,3.28,2.17,5.7,2.17c0.37,0,0.67-0.3,0.67-0.67
				c0-0.37-0.3-0.67-0.67-0.67c-1.75,0-3.16-0.43-4.22-1.29c1.01-0.1,2.29-0.41,3.24-1.3c0.22-0.2,0.41-0.42,0.57-0.66
				c0.46-0.22,2.69-1.16,4.62,0.36c0.12,0.1,0.27,0.14,0.41,0.14c0.2,0,0.39-0.09,0.53-0.26c0.23-0.29,0.18-0.71-0.11-0.94
				c-1.71-1.34-3.55-1.25-4.77-0.95c0.08-0.42,0.11-0.88,0.09-1.36c-0.02-0.37-0.32-0.65-0.69-0.64c-0.37,0.02-0.65,0.33-0.64,0.69
				c0.05,1.14-0.25,2.02-0.89,2.62c-1.06,0.98-2.8,1.01-3.49,0.98c-1-1.59-1.1-3.46-1.1-4.08c0-0.05,0-0.09,0-0.1
				c0-0.01,0-0.03,0-0.04c0-0.04,0-0.07,0-0.07c0-0.05,0-0.1-0.01-0.15l0-3.09v-3.76l2.15-2.34c0.29,1.8,1.52,2.83,3.43,2.83
				c0.63,0,1.1-0.11,1.15-0.13c0.33-0.08,0.55-0.41,0.49-0.75c-0.28-1.78-1.25-2.89-2.7-3.15c0.99-0.14,1.81-0.52,2.46-1.16
				c1.66-1.64,1.43-4.3,1.42-4.42c-0.03-0.34-0.32-0.6-0.66-0.61c-0.01,0-0.01,0-0.02,0c-1.64,0-2.95,0.5-3.9,1.47
				c-1.28,1.31-1.49,3.1-1.52,3.79l-2.29,2.49v-5.3c1.43-1.64,2.1-3.35,1.99-5.07c-0.18-2.63-2.14-4.3-2.23-4.37
				c-0.26-0.21-0.63-0.21-0.88,0.02c-1.62,1.48-2.43,3.09-2.4,4.81c0.04,2.29,1.58,4.02,2.18,4.62v2.6l-2.4-1.33
				c-0.31-1.56-1.03-2.72-2.15-3.44c-2.09-1.35-4.77-0.63-4.89-0.59C7.08,7.01,6.87,7.35,6.94,7.7C7.31,9.42,8.13,10.67,9.36,11.43z
				 M13.72,17.1c-1.1,0-1.82-0.54-2.19-1.64c0.08,0,0.16-0.01,0.24-0.01c1.37,0,2.23,0.53,2.56,1.59
				C14.16,17.07,13.95,17.1,13.72,17.1z M23.93,16.1c-0.05,0-0.11,0-0.17,0c-1.12,0-1.8-0.46-2.05-1.4c0.1-0.01,0.21-0.02,0.32-0.02
				C22.99,14.68,23.61,15.14,23.93,16.1z M22.95,9.63c0.57-0.58,1.34-0.93,2.3-1.03c-0.04,0.73-0.24,1.92-1.03,2.7
				c-0.56,0.55-1.36,0.83-2.38,0.83C21.93,11.47,22.18,10.42,22.95,9.63z M16,5.03c-0.02-1.15,0.49-2.27,1.51-3.34
				c0.49,0.56,1.24,1.64,1.33,3.02c0.08,1.23-0.37,2.47-1.34,3.71C16.92,7.77,16.02,6.53,16,5.03z M11.59,8.63
				c0.71,0.46,1.2,1.2,1.47,2.2c-0.73,0.08-1.96,0.09-3-0.55c-0.75-0.46-1.3-1.2-1.62-2.2C9.21,7.98,10.54,7.95,11.59,8.63z"/>
		</g>
	</g>
    <g>
		<g>
			<path fill="#002D5C" d="M8.89,43.74c0.77,0,2.27,0.32,2.27,1.34v0.67h-1v-0.34c0-0.44-0.72-0.64-1.24-0.64
				c-1.07,0-1.91,0.77-1.91,2.01c0,1.17,0.86,2.12,1.95,2.12c1.13,0,1.81-0.79,1.81-0.79l0.58,0.79c0,0-0.87,1.03-2.41,1.03
				c-1.83,0-3.08-1.37-3.08-3.14C5.86,45.05,7.16,43.74,8.89,43.74z"/>
		</g>
        <g>
			<path fill="#002D5C" d="M12.46,48.89h0.36c0.12,0,0.19-0.07,0.19-0.19v-4.86H14l2.27,3.31c0.24,0.35,0.5,0.84,0.5,0.84h0.02
				c0,0-0.06-0.5-0.06-0.84v-2.74c0-0.4,0.17-0.57,0.57-0.57h1.08v0.94h-0.36c-0.12,0-0.19,0.07-0.19,0.19v4.86h-0.99l-2.28-3.3
				c-0.24-0.34-0.5-0.84-0.5-0.84h-0.02c0,0,0.06,0.5,0.06,0.84v2.73c0,0.4-0.17,0.57-0.57,0.57h-1.08V48.89z"/>
		</g>
        <g>
			<path fill="#002D5C" d="M20.17,44.78h-0.55v-0.94h3.41c0.4,0,0.57,0.18,0.57,0.57v0.91h-0.99v-0.36c0-0.12-0.07-0.19-0.19-0.19
				h-1.15v1.69h1.91v0.94h-1.91v2.42h-1.1V44.78z"/>
		</g>
        <g>
			<path fill="#002D5C" d="M23.9,48.89h0.13c0.14,0,0.21-0.03,0.26-0.19l1.78-4.86h1.15l1.77,4.86c0.05,0.15,0.12,0.19,0.26,0.19
				h0.13v0.94h-0.66c-0.42,0-0.57-0.11-0.71-0.49l-0.37-1.05h-2.02l-0.37,1.05c-0.13,0.38-0.28,0.49-0.7,0.49H23.9V48.89z
				 M27.4,47.38l-0.51-1.5c-0.11-0.33-0.24-0.89-0.24-0.89h-0.02c0,0-0.13,0.56-0.24,0.89l-0.51,1.5H27.4z"/>
		</g>
	</g>
</g>
</svg>
