<?xml version="1.0" standalone="no"?>
<!DOCTYPE svg PUBLIC "-//W3C//DTD SVG 20010904//EN"
        "http://www.w3.org/TR/2001/REC-SVG-20010904/DTD/svg10.dtd">
<svg version="1.0" xmlns="http://www.w3.org/2000/svg"
     width="800.000000pt" height="800.000000pt" viewBox="0 0 800.000000 800.000000"
     preserveAspectRatio="xMidYMid meet">
    <metadata>
        Created by potrace 1.11, written by Peter Selinger 2001-2013
    </metadata>
    <g transform="translate(0.000000,800.000000) scale(0.100000,-0.100000)"
       fill="#FFFFFF" stroke="none">
        <path d="M3929 7972 c-40 -26 -151 -143 -207 -218 -46 -62 -144 -233 -143
-251 1 -8 -15 -63 -26 -93 -9 -24 -12 -48 -19 -161 -12 -191 39 -371 159 -564
26 -41 87 -124 107 -145 3 -3 21 -22 40 -43 l35 -38 1 -209 1 -210 -61 33
c-296 161 -324 179 -331 214 -33 179 -152 376 -287 478 -154 116 -305 162
-532 163 -208 1 -313 -21 -356 -75 -28 -35 -24 -93 15 -208 90 -268 242 -437
482 -537 16 -6 30 -12 33 -13 115 -35 201 -48 315 -48 84 0 206 10 213 18 3 2
28 -8 56 -24 56 -32 60 -34 291 -162 l160 -89 0 -310 c0 -171 -3 -310 -7 -310
-3 0 -35 16 -70 36 -35 19 -71 38 -80 41 -10 3 -26 34 -41 82 -62 191 -181
311 -370 375 -70 23 -119 29 -247 29 -122 0 -190 -7 -221 -24 -49 -26 -63 -93
-37 -183 6 -22 12 -45 14 -51 19 -84 113 -235 182 -293 54 -45 138 -92 197
-108 96 -26 272 -29 353 -5 29 9 41 5 107 -30 41 -21 107 -58 147 -82 l72 -42
0 -405 c-1 -361 -4 -440 -18 -515 -2 -11 -7 -40 -11 -65 -4 -25 -12 -50 -17
-57 -5 -7 -7 -17 -4 -22 4 -5 2 -12 -3 -15 -4 -3 -11 -19 -14 -34 -9 -44 -60
-150 -105 -217 -67 -101 -200 -209 -269 -219 -7 -1 -15 -5 -18 -8 -10 -10 -76
12 -140 45 -113 60 -233 205 -290 352 -11 28 -20 52 -21 55 -22 95 -124 127
-186 59 -34 -36 -36 -73 -8 -155 38 -112 133 -276 193 -332 29 -28 19 -32 -35
-15 -205 60 -448 175 -569 269 -47 37 -141 140 -166 182 -38 64 -62 134 -66
195 -6 64 -17 89 -54 115 -51 34 -120 16 -148 -39 -28 -54 -5 -211 45 -310 21
-40 26 -64 12 -55 -13 8 -215 58 -247 62 -16 1 -43 5 -60 9 -16 3 -50 8 -75
11 -25 3 -71 9 -102 13 -39 5 -67 4 -87 -5 -62 -26 -83 -105 -42 -163 21 -29
36 -35 121 -46 25 -3 56 -7 70 -9 14 -3 45 -7 70 -10 98 -13 328 -68 405 -97
28 -10 56 -19 63 -19 7 0 31 -9 53 -19 22 -11 53 -23 69 -26 30 -7 42 -24 18
-26 -7 0 -21 -2 -30 -4 -9 -2 -34 -6 -55 -9 -160 -24 -353 -134 -402 -228 -33
-64 23 -148 98 -148 31 0 48 9 95 50 66 58 118 84 223 111 64 16 197 33 241
30 17 -1 40 -1 55 0 21 2 231 -12 247 -16 8 -2 35 -6 60 -9 25 -3 56 -8 70
-11 14 -3 40 -8 59 -11 19 -3 64 -13 100 -21 88 -20 287 -23 376 -7 190 36
343 130 472 290 l32 39 -5 -110 c-2 -60 -6 -121 -9 -135 -3 -14 -8 -45 -11
-70 -3 -25 -11 -54 -17 -65 -6 -11 -10 -22 -9 -25 5 -15 -33 -101 -62 -141
-45 -61 -105 -90 -188 -91 -92 -1 -131 -26 -143 -91 -9 -45 22 -101 64 -115
89 -31 264 6 349 75 38 31 43 32 48 16 71 -211 236 -324 457 -311 55 3 72 8
92 28 33 34 41 91 19 129 -25 42 -48 51 -142 56 -97 5 -148 28 -186 84 -42 61
-47 107 -44 396 l3 270 32 -50 c39 -61 147 -170 228 -230 128 -95 334 -178
500 -201 16 -2 48 -6 70 -10 22 -3 84 -7 138 -8 93 -2 100 -1 128 23 34 30 46
81 30 123 -17 44 -62 65 -144 67 -217 6 -403 57 -553 153 -79 49 -81 55 -16
59 37 2 159 32 207 51 132 51 189 89 281 184 73 75 114 99 209 123 211 54 419
18 579 -100 105 -77 234 22 170 131 -38 64 -234 163 -382 194 -109 22 -299 17
-383 -9 -20 -7 -21 -4 -14 41 8 59 8 195 0 215 -9 24 -70 59 -104 59 -23 0
-42 -9 -65 -32 -32 -32 -33 -35 -39 -139 -11 -215 -90 -350 -254 -433 -95 -48
-258 -82 -388 -81 l-59 0 -36 70 c-42 81 -73 164 -95 255 -39 159 -43 230 -44
863 l-2 618 40 42 c92 99 246 266 279 305 23 27 24 26 47 -53 51 -179 170
-298 350 -350 111 -32 322 -25 392 13 70 38 62 150 -22 327 -67 140 -191 247
-315 271 -33 7 -32 16 3 21 39 6 96 23 142 43 25 11 47 20 50 20 10 0 111 74
148 109 81 75 184 264 202 372 3 19 8 41 11 50 17 57 25 270 12 312 -16 53
-52 72 -133 71 -66 -1 -126 -6 -205 -20 -54 -9 -178 -60 -249 -101 -58 -35
-211 -175 -211 -194 0 -4 -7 -14 -15 -23 -16 -16 -97 -184 -111 -231 -14 -46
-42 -200 -38 -207 3 -4 2 -14 -3 -20 -4 -7 -7 -20 -8 -29 0 -14 -61 -84 -247
-284 -31 -34 -70 -76 -86 -95 l-30 -34 0 424 1 424 63 83 c82 107 147 218 185
318 17 44 32 87 34 95 2 8 8 33 13 55 77 298 -34 654 -283 910 -27 29 -60 57
-72 64 -31 16 -74 14 -104 -7z m173 -419 c120 -235 122 -463 5 -698 -30 -62
-116 -195 -125 -195 -11 0 -59 60 -107 135 -97 149 -138 291 -130 445 2 50 7
95 10 101 4 5 9 21 11 36 13 73 81 192 172 301 l45 53 47 -65 c26 -36 58 -87
72 -113z m-1302 -848 c24 -3 63 -13 85 -21 22 -8 47 -16 56 -19 73 -16 199
-125 252 -216 34 -58 79 -170 71 -178 -8 -8 -189 -7 -239 1 -70 11 -189 50
-205 68 -3 3 -18 12 -35 20 -61 30 -161 143 -204 231 -53 110 -53 112 -11 119
45 7 172 4 230 -5z m2414 -138 c-3 -29 -11 -74 -18 -102 -8 -27 -15 -57 -17
-65 -2 -8 -20 -47 -40 -87 -77 -150 -203 -231 -388 -249 l-74 -7 7 49 c27 191
155 380 307 452 70 33 154 59 201 60 26 1 27 0 22 -51z m-360 -951 c30 -15 68
-44 84 -64 33 -42 73 -117 67 -124 -11 -11 -132 5 -179 23 -78 29 -166 127
-166 185 0 27 124 14 194 -20z m-1654 -101 c60 -11 156 -63 195 -106 38 -42
81 -126 71 -136 -6 -7 -152 -6 -176 0 -61 16 -79 23 -110 42 -20 13 -50 39
-68 59 -32 36 -82 126 -82 146 0 10 99 7 170 -5z"/>
        <path d="M5905 6593 c-39 -21 -62 -74 -51 -119 3 -11 17 -33 32 -50 118 -132
250 -314 333 -458 40 -70 123 -231 127 -246 0 -3 6 -18 14 -35 18 -42 50 -127
55 -145 3 -8 16 -49 30 -90 14 -41 27 -84 29 -95 3 -11 16 -69 29 -130 14 -60
25 -117 25 -125 0 -8 3 -26 6 -40 17 -89 32 -328 27 -446 -1 -16 -7 -20 -30
-18 -16 1 -34 5 -40 9 -6 3 -11 3 -11 -2 0 -4 -30 -7 -67 -5 -38 2 -75 3 -83
3 -11 -1 -259 -1 -315 0 -5 0 -77 -1 -160 -1 -82 -1 -177 -1 -210 -1 -83 1
-418 2 -430 2 -39 -1 -482 -2 -530 -1 -33 0 -93 -1 -134 -3 -68 -3 -75 -5
-102 -35 -51 -57 -34 -140 35 -166 24 -10 269 -12 1044 -12 l1014 1 -7 -55
c-4 -30 -9 -63 -11 -75 -7 -33 -14 -68 -19 -100 -3 -16 -8 -38 -11 -47 -3 -9
-7 -25 -9 -35 -7 -37 -48 -178 -53 -188 -4 -5 -7 -14 -8 -20 -14 -79 -201
-472 -249 -525 -8 -9 -15 -20 -15 -24 0 -7 -46 -76 -73 -111 -4 -5 -25 -34
-47 -63 -213 -288 -535 -560 -865 -730 -86 -44 -190 -91 -209 -95 -6 -1 -13
-5 -16 -8 -5 -7 -237 -86 -273 -93 -12 -3 -33 -8 -47 -11 -108 -28 -231 -51
-315 -61 -299 -32 -612 -18 -850 38 -27 7 -54 11 -58 10 -4 -1 -16 2 -26 7
-10 6 -31 13 -47 15 -61 12 -254 78 -351 122 -72 32 -193 91 -213 104 -8 5
-57 35 -108 66 -101 61 -263 179 -327 238 -64 59 -126 65 -176 15 -17 -17 -23
-35 -23 -72 -1 -49 -1 -50 79 -123 44 -41 84 -74 88 -74 4 0 18 -9 30 -21 31
-29 230 -160 302 -199 125 -68 163 -87 255 -127 195 -83 408 -151 565 -178
242 -42 308 -48 530 -49 159 0 311 8 378 19 12 2 51 9 87 15 103 16 119 19
220 45 192 49 354 107 528 191 114 55 336 183 369 213 10 9 32 25 48 35 113
72 387 324 502 461 312 373 522 812 608 1270 3 17 7 41 10 55 42 222 50 523
20 805 -28 265 -129 610 -258 875 -66 135 -199 359 -219 368 -5 2 -8 10 -8 18
0 8 -4 14 -8 14 -4 0 -15 13 -25 29 -15 25 -99 132 -132 167 -5 6 -24 27 -41
46 -59 68 -101 81 -159 51z"/>
        <path d="M1790 6354 c-21 -13 -157 -204 -169 -238 -2 -6 -7 -13 -10 -16 -16
-13 -181 -347 -181 -366 0 -3 -7 -20 -15 -37 -62 -135 -142 -452 -170 -682
-17 -133 -22 -422 -11 -535 3 -30 8 -82 12 -115 8 -81 22 -152 33 -174 14 -25
72 -52 101 -46 71 14 101 67 88 158 -4 33 -7 66 -5 72 3 7 317 10 999 10 927
0 996 2 1021 18 72 47 66 159 -10 188 -16 6 -404 9 -1029 10 l-1005 0 5 157
c5 158 12 263 21 292 2 8 7 38 10 65 4 28 10 66 15 85 5 19 11 46 14 60 15 86
91 321 135 423 11 26 21 49 21 52 1 20 136 261 198 355 86 129 104 171 90 213
-21 60 -101 86 -158 51z"/>
        <path d="M2609 1005 c-2 -2 -31 -6 -64 -8 -111 -10 -209 -58 -294 -144 -140
-144 -173 -384 -78 -577 79 -158 225 -252 406 -261 95 -4 154 5 238 39 58 24
173 102 173 118 0 6 -19 36 -42 69 l-41 59 -31 -25 c-37 -30 -120 -75 -150
-81 -95 -21 -113 -22 -171 -10 -120 24 -215 124 -244 256 -23 107 9 239 75
304 38 37 84 70 84 59 0 -4 4 -3 8 3 10 16 88 31 142 29 112 -6 180 -45 183
-107 2 -20 5 -40 9 -43 11 -11 147 -11 151 0 10 25 -2 143 -16 170 -38 73
-138 125 -273 141 -27 3 -51 7 -55 9 -3 3 -8 3 -10 0z"/>
        <path d="M3261 591 c0 -217 -4 -398 -8 -402 -5 -5 -24 -10 -43 -12 l-35 -2 -3
-73 -4 -72 31 -1 c17 0 60 -1 96 -1 95 0 94 0 119 27 22 24 22 25 21 321 -1
288 -1 296 17 274 10 -12 18 -28 18 -34 0 -7 8 -21 18 -32 9 -10 31 -40 47
-66 17 -27 33 -48 38 -48 4 0 7 -4 7 -10 0 -7 105 -165 137 -205 5 -5 34 -48
66 -95 97 -143 84 -133 167 -134 39 0 74 3 78 8 3 5 5 182 5 392 0 211 3 388
7 394 4 7 23 13 41 13 34 2 34 3 39 57 9 101 14 97 -112 95 -103 -1 -112 -3
-129 -24 -11 -13 -19 -35 -20 -50 -4 -106 -3 -485 2 -524 3 -26 2 -50 -3 -53
-4 -3 -8 0 -8 6 0 6 -12 30 -27 53 -16 23 -32 50 -38 59 -5 10 -33 50 -60 90
-28 40 -84 123 -125 183 -41 61 -77 112 -80 115 -15 15 -50 71 -50 80 0 5 -3
10 -8 10 -4 0 -15 12 -24 27 -16 27 -20 28 -97 28 l-79 0 -1 -394z"/>
        <path d="M4318 939 c-2 -25 -1 -59 2 -75 5 -26 9 -29 45 -29 l40 0 0 -403 0
-402 30 -1 c57 -1 140 3 145 7 2 3 4 89 5 192 l0 187 135 1 c74 1 143 2 153 3
14 1 17 12 17 74 l0 73 -127 0 c-71 -1 -140 0 -154 2 l-27 4 2 131 1 132 98 1
c103 0 111 -3 113 -46 1 -14 2 -28 3 -32 1 -5 36 -8 79 -8 l79 0 -2 96 c-3
148 19 139 -339 139 l-294 1 -4 -47z"/>
        <path d="M5339 956 c-6 -17 -13 -35 -14 -41 -2 -5 -19 -53 -38 -105 -20 -52
-59 -160 -88 -240 -28 -80 -56 -156 -62 -170 -6 -14 -11 -29 -12 -35 -2 -5
-18 -48 -36 -95 -28 -69 -39 -85 -59 -90 -24 -6 -25 -9 -25 -78 l-1 -72 36 -1
c95 -4 142 6 159 33 7 12 27 60 43 107 16 47 33 91 38 96 5 6 72 10 167 9 148
0 158 -2 161 -20 2 -10 8 -23 13 -28 5 -6 9 -18 9 -27 0 -31 58 -147 78 -158
11 -6 53 -12 94 -13 l73 -3 5 45 c9 79 2 107 -28 113 -24 5 -31 18 -65 114
-21 59 -43 117 -47 128 -8 19 -82 221 -121 330 -43 123 -80 219 -85 224 -3 3
-46 6 -94 7 l-89 1 -12 -31z m120 -213 c7 -27 33 -107 57 -179 24 -72 44 -134
44 -138 0 -3 -54 -6 -119 -6 l-120 0 55 162 c30 89 55 173 56 185 3 36 12 27
27 -24z"/>
    </g>
</svg>
